<?xml version="1.0" encoding="utf-8"?>
<!-- Generator: Adobe Illustrator 26.2.1, SVG Export Plug-In . SVG Version: 6.00 Build 0)  -->
<svg version="1.1" id="Layer_1" xmlns="http://www.w3.org/2000/svg" xmlns:xlink="http://www.w3.org/1999/xlink" x="0px" y="0px"
	 viewBox="0 0 566.9 48.1" style="enable-background:new 0 0 566.9 48.1;" xml:space="preserve">
<g>
	<path d="M563.2,11.2c-2.5-3.5-5.6-6.2-9.5-7.9c-3.8-1.8-7.9-2.6-12.3-2.6h-14.4c-0.8,0-1.2,0.2-1.2,0.7v0.1c0,0.3,0.2,0.5,0.6,0.7
		c0.4,0.2,0.8,0.5,1.2,0.9c0.4,0.4,0.6,0.8,0.6,1.5v39.3c0,0.7-0.4,1.4-1.2,1.8c-0.8,0.5-1.2,0.9-1.2,1.1v0.1c0,0.4,0.4,0.7,1.2,0.7
		h16.1c6.7,0,12.4-2.2,16.9-6.5c4.6-4.3,6.9-10.2,6.9-17.6C566.9,18.8,565.7,14.8,563.2,11.2z M557,39.8c-3.9,3.7-8.6,5.5-14.1,5.5
		h-8.7c-1.4,0-2.1-0.9-2.1-2.6V4.5c0-1.2,0.5-1.8,1.5-1.8h7.2c2.7,0,5.3,0.5,7.9,1.4c2.6,1,4.9,2.3,7,4.1c2.1,1.8,3.9,4.1,5.2,6.9
		c1.3,2.8,2,6,2,9.4C562.8,31.1,560.9,36.2,557,39.8z"/>
	<path d="M511.7,0.7c-0.9,0-1.3,0.2-1.3,0.7v0.1c0,0.2,0.4,0.6,1.3,1.1c0.9,0.5,1.3,1.1,1.3,1.9V42L483.9,1.7
		c-0.5-0.7-1.2-1.1-2-1.1h-3.5c-0.8,0-1.3,0.2-1.3,0.7v0.3c0,0.3,0.2,0.5,0.6,0.7c0.4,0.2,0.8,0.4,1.2,0.8c0.4,0.3,0.6,0.8,0.6,1.4
		v38.9c0,0.9-0.4,1.6-1.2,2.1c-0.8,0.5-1.2,0.9-1.2,1.2v0.1c0,0.4,0.4,0.7,1.3,0.7h5.1c0.8,0,1.3-0.2,1.3-0.7v-0.1
		c0-0.3-0.5-0.7-1.4-1.2c-0.9-0.5-1.4-1.2-1.4-2.1V5.5l29.6,40.5c0.7,1,1.3,1.5,1.8,1.5h0.9c0.8,0,1.2-0.5,1.2-1.4V4.4
		c0-0.8,0.4-1.4,1.3-1.9c0.9-0.5,1.3-0.8,1.3-1.1V1.4c0-0.5-0.4-0.7-1.3-0.7H511.7z"/>
	<path d="M462.9,42.8c3.3-3.5,4.9-8.1,4.9-13.7V4.4c0-0.8,0.4-1.4,1.3-1.9c0.9-0.5,1.3-0.8,1.3-1.1V1.3c0-0.4-0.4-0.7-1.3-0.7h-5
		c-0.8,0-1.2,0.2-1.2,0.7v0.1c0,0.2,0.4,0.6,1.2,1.1c0.8,0.5,1.2,1.1,1.2,1.9v24.7c0,5.1-1.4,9.1-4.1,12.2
		c-2.7,3.1-6.1,4.6-10.2,4.6c-4.3,0-7.8-1.6-10.6-4.7c-2.7-3.1-4.1-7.2-4.1-12.1V4.4c0-0.8,0.4-1.4,1.2-1.9c0.8-0.5,1.2-0.8,1.2-1.1
		V1.3c0-0.4-0.4-0.7-1.2-0.7h-6.2c-0.9,0-1.3,0.2-1.3,0.7v0.1c0,0.2,0.4,0.6,1.2,1.1c0.8,0.5,1.2,1.1,1.2,1.9v24.7
		c0,5.6,1.7,10.2,5,13.7c3.3,3.5,7.7,5.3,13.1,5.3C455.5,48.1,459.7,46.3,462.9,42.8"/>
	<path d="M417.9,7.1c-4.3-4.7-9.7-7.1-16.2-7.1c-6.7,0-12.2,2.3-16.4,6.8c-4.3,4.5-6.4,10.2-6.4,17c0,4.2,1,8.1,2.9,11.8
		c2,3.7,4.8,6.7,8.4,9c3.6,2.3,7.7,3.5,12.1,3.5c6.2,0,11.5-2.4,15.7-7.1c4.3-4.7,6.4-10.3,6.4-16.7
		C424.4,17.5,422.2,11.8,417.9,7.1z M415.5,40c-3.3,3.9-7.5,5.9-12.5,5.9c-5.8,0-10.6-2.4-14.5-7.2c-3.9-4.8-5.8-10.5-5.8-17
		c0-5.5,1.7-10.2,5-13.9c3.3-3.7,7.5-5.6,12.6-5.6c5.8,0,10.7,2.3,14.5,7c3.8,4.7,5.7,10.4,5.7,17.2C420.5,31.6,418.8,36.1,415.5,40
		z"/>
	<path d="M375.3,46c-0.4-0.2-0.9-0.4-1.6-0.8c-0.7-0.4-1.2-0.8-1.6-1.4l-11.8-15.3c4-0.9,7.1-2.5,9.3-4.9c2.2-2.4,3.3-5.2,3.3-8.5
		c0-4.7-1.9-8.3-5.6-10.7c-3.7-2.4-8.5-3.6-14.3-3.6h-12.1c-0.8,0-1.2,0.2-1.2,0.7v0.1c0,0.3,0.2,0.5,0.6,0.7
		c0.4,0.2,0.7,0.5,1.1,0.9c0.4,0.4,0.6,0.8,0.6,1.4v39.4c0,0.7-0.4,1.4-1.1,1.8c-0.7,0.5-1.1,0.9-1.1,1.1v0.1c0,0.4,0.4,0.7,1.2,0.7
		h6.3c0.8,0,1.2-0.2,1.2-0.7v-0.1c0-0.3-0.4-0.6-1.2-1.1c-0.8-0.5-1.2-1.1-1.2-1.8V29.1l8-0.1c0.6,0,1.5,0,2.6-0.1l11.4,14.8
		c0.4,0.7,0.5,1.2,0.3,1.5c-0.2,0.2-0.5,0.5-0.9,0.7c-0.4,0.3-0.6,0.5-0.6,0.8v0.1c0,0.4,0.4,0.7,1.2,0.7h6.9c0.8,0,1.2-0.2,1.2-0.7
		v-0.1C375.9,46.4,375.7,46.2,375.3,46z M353.5,27h-5.5c-1.5,0-2.2-0.8-2.2-2.4v-20c0-1.2,0.5-1.8,1.5-1.8h5.4
		c4.7,0,8.5,1.1,11.5,3.2c3,2.2,4.5,5.4,4.5,9.8c0,3.4-1.4,6.2-4.2,8.2C361.8,26,358.1,27,353.5,27z"/>
	<path d="M323,25.6c-0.8,0-1.2,0.2-1.2,0.6v0.2c0,0.3,0.8,0.6,2.3,1.1c1.6,0.5,2.3,1.2,2.3,2v10.7c-2.8,3.3-6.9,4.9-12.4,4.9
		c-5.2,0-9.8-2.3-13.8-6.8c-4-4.5-5.9-10.1-5.9-16.7c0-5.4,1.7-10,5.1-13.8c3.4-3.8,7.3-5.7,11.7-5.7c2.5,0,4.7,0.4,6.6,1.2
		c1.9,0.8,3.3,1.8,4.3,3c1,1.2,1.8,2.4,2.5,3.5c0.7,1.2,1.3,2.2,1.9,3c0.6,0.8,1.2,1.2,1.9,1.2c1.3,0,2-0.7,2-2
		c0-2.5-1.7-5.1-5.1-7.9c-3.4-2.8-7.6-4.2-12.7-4.2c-5.9,0-11.1,2.3-15.5,6.8c-4.4,4.5-6.6,10.2-6.6,17c0,6.7,2.3,12.4,6.8,17.2
		c4.5,4.8,9.7,7.2,15.6,7.2c2.9,0,5.7-0.5,8.3-1.4c2.6-0.9,4.8-2.3,6.4-3.9l1.1,4.7c0.1,0.4,0.5,0.6,1,0.6c0.5,0,0.7-0.3,0.7-0.9
		V29.6c0-0.9,0.7-1.6,2.1-2.1c1.4-0.5,2.1-0.9,2.1-1.1v-0.1c0-0.4-0.4-0.6-1.3-0.6L323,25.6z"/>
	<path d="M286.8,46c-0.4-0.2-0.9-0.4-1.6-0.8c-0.7-0.4-1.2-0.8-1.6-1.4l-11.8-15.3c4-0.9,7.1-2.5,9.3-4.9c2.2-2.4,3.3-5.2,3.3-8.5
		c0-4.7-1.9-8.3-5.6-10.7c-3.7-2.4-8.5-3.6-14.3-3.6h-12.1c-0.8,0-1.2,0.2-1.2,0.7v0.1c0,0.3,0.2,0.5,0.6,0.7
		c0.4,0.2,0.7,0.5,1.1,0.9c0.4,0.4,0.6,0.8,0.6,1.4v39.4c0,0.7-0.4,1.4-1.1,1.8c-0.7,0.5-1.1,0.9-1.1,1.1v0.1c0,0.4,0.4,0.7,1.2,0.7
		h6.3c0.8,0,1.2-0.2,1.2-0.7v-0.1c0-0.3-0.4-0.6-1.2-1.1c-0.8-0.5-1.2-1.1-1.2-1.8V29.1l8-0.1c0.6,0,1.5,0,2.6-0.1l11.4,14.8
		c0.4,0.7,0.5,1.2,0.3,1.5c-0.2,0.2-0.5,0.5-0.9,0.7c-0.4,0.3-0.6,0.5-0.6,0.8v0.1c0,0.4,0.4,0.7,1.2,0.7h6.9c0.8,0,1.2-0.2,1.2-0.7
		v-0.1C287.4,46.4,287.2,46.2,286.8,46z M265,27h-5.5c-1.5,0-2.2-0.8-2.2-2.4v-20c0-1.2,0.5-1.8,1.5-1.8h5.4c4.7,0,8.5,1.1,11.5,3.2
		c3,2.2,4.5,5.4,4.5,9.8c0,3.4-1.4,6.2-4.2,8.2C273.3,26,269.6,27,265,27z"/>
	<path d="M242.6,47.4c0.7,0,1.2-0.4,1.5-1.3l1.5-6c0.2-0.7,0-1.1-0.6-1.1h-0.3c-0.4,0-0.9,0.5-1.5,1.6c-0.5,1.1-1.2,2.1-1.9,3.2
		c-0.7,1.1-1.5,1.6-2.4,1.6h-18.5c-0.6,0-1-0.2-1.4-0.6c-0.4-0.4-0.6-1-0.6-1.6l0.1-18.7h14c0.8,0,1.4,0.6,1.8,1.7
		c0.4,1.1,0.8,1.7,1.1,1.7h0.3c0.4,0,0.7-0.4,0.7-1.1v-6.9c0-0.6-0.2-0.9-0.7-0.9h-0.3c-0.3,0-0.7,0.6-1.1,1.7
		c-0.4,1.1-1,1.7-1.8,1.7h-14V4.6c0-1.3,0.5-1.9,1.5-1.9h16.9c0.9,0,1.7,0.5,2.4,1.6c0.7,1.1,1.4,2.1,2,3.2c0.6,1.1,1.1,1.6,1.5,1.6
		h0.3c0.6,0,0.8-0.4,0.6-1.2l-1.6-5.9c-0.2-0.8-0.7-1.3-1.5-1.3h-27.2c-0.7,0-1,0.2-1,0.6v0.1c0,0.2,0.1,0.4,0.4,0.5
		c0.2,0.2,0.5,0.3,0.8,0.5c0.3,0.2,0.5,0.4,0.8,0.8c0.2,0.4,0.4,0.8,0.4,1.3v39.1c0,0.9-0.4,1.5-1.2,2c-0.8,0.5-1.2,0.8-1.2,1.1v0.1
		c0,0.4,0.4,0.7,1.2,0.7H242.6z"/>
	<path d="M202.3,11.2c-2.5-3.5-5.6-6.2-9.5-7.9c-3.8-1.8-7.9-2.6-12.3-2.6h-14.4c-0.8,0-1.2,0.2-1.2,0.7v0.1c0,0.3,0.2,0.5,0.6,0.7
		c0.4,0.2,0.8,0.5,1.2,0.9c0.4,0.4,0.6,0.8,0.6,1.5v39.3c0,0.7-0.4,1.4-1.2,1.8c-0.8,0.5-1.2,0.9-1.2,1.1v0.1c0,0.4,0.4,0.7,1.2,0.7
		h16.1c6.7,0,12.4-2.2,16.9-6.5c4.6-4.3,6.9-10.2,6.9-17.6C206,18.8,204.8,14.8,202.3,11.2z M196.1,39.8c-3.9,3.7-8.6,5.5-14.1,5.5
		h-8.7c-1.4,0-2.1-0.9-2.1-2.6V4.5c0-1.2,0.5-1.8,1.5-1.8h7.2c2.7,0,5.3,0.5,7.9,1.4c2.6,1,4.9,2.3,7,4.1c2.1,1.8,3.9,4.1,5.2,6.9
		c1.3,2.8,2,6,2,9.4C201.9,31.1,200,36.2,196.1,39.8z"/>
	<path d="M150.8,0.7c-0.9,0-1.3,0.2-1.3,0.7v0.1c0,0.2,0.4,0.6,1.3,1.1c0.9,0.5,1.3,1.1,1.3,1.9V42L123,1.7c-0.5-0.7-1.2-1.1-2-1.1
		h-3.5c-0.8,0-1.2,0.2-1.2,0.7v0.3c0,0.3,0.2,0.5,0.6,0.7c0.4,0.2,0.8,0.4,1.2,0.8c0.4,0.3,0.6,0.8,0.6,1.4v38.9
		c0,0.9-0.4,1.6-1.2,2.1c-0.8,0.5-1.2,0.9-1.2,1.2v0.1c0,0.4,0.4,0.7,1.2,0.7h5.1c0.8,0,1.2-0.2,1.2-0.7v-0.1c0-0.3-0.4-0.7-1.3-1.2
		c-0.9-0.5-1.4-1.2-1.4-2.1V5.5l29.6,40.5c0.7,1,1.3,1.5,1.8,1.5h0.9c0.8,0,1.2-0.5,1.2-1.4V4.4c0-0.8,0.4-1.4,1.3-1.9
		c0.9-0.5,1.3-0.8,1.3-1.1V1.4c0-0.5-0.4-0.7-1.2-0.7H150.8z"/>
	<path d="M103.5,7.1C99.1,2.4,93.7,0,87.2,0c-6.7,0-12.2,2.3-16.4,6.8c-4.3,4.5-6.4,10.2-6.4,17c0,4.2,1,8.1,2.9,11.8
		c2,3.7,4.8,6.7,8.4,9c3.6,2.3,7.7,3.5,12.1,3.5c6.2,0,11.5-2.4,15.7-7.1c4.3-4.7,6.4-10.3,6.4-16.7C110,17.5,107.8,11.8,103.5,7.1z
		 M101.1,40c-3.3,3.9-7.5,5.9-12.5,5.9c-5.8,0-10.6-2.4-14.5-7.2c-3.9-4.8-5.8-10.5-5.8-17c0-5.5,1.7-10.2,5-13.9
		c3.3-3.7,7.5-5.6,12.6-5.6c5.8,0,10.7,2.3,14.5,7c3.8,4.7,5.7,10.4,5.7,17.2C106.1,31.6,104.4,36.1,101.1,40z"/>
	<path d="M56.7,0.7c-0.8,0-1.2,0.2-1.2,0.7v0.1c0,0.2,0.4,0.6,1.3,1C57.7,3,58,3.6,57.7,4.4L46,42.3L33.1,4.4
		c-0.2-0.7-0.1-1.2,0.2-1.6c0.4-0.4,0.8-0.7,1.3-0.9c0.5-0.2,0.7-0.4,0.7-0.6V1.2c0-0.4-0.3-0.5-1-0.5h-7.2c-0.7,0-1,0.2-1,0.5v0.1
		c0,0.3,0.4,0.6,1.3,1.1s1.4,1.1,1.7,2l3,8.6L21.2,42.2L7.2,4.5C7,4,7,3.5,7.1,3.2c0.2-0.3,0.4-0.6,0.7-0.7C8.1,2.4,8.4,2.2,8.7,2
		C9,1.9,9.2,1.6,9.2,1.4V1.3c0-0.4-0.4-0.7-1.1-0.7h-7C0.4,0.7,0,0.8,0,1.2v0.1C0,1.6,0.1,1.8,0.4,2c0.2,0.2,0.5,0.3,0.8,0.4
		c0.3,0.1,0.6,0.3,1,0.7c0.4,0.4,0.7,0.8,0.9,1.4l15.7,41.8c0.4,0.8,0.9,1.2,1.6,1.2c1,0,1.6-0.4,1.8-1.2l11-29.7l10.3,29.7
		c0.3,0.8,0.8,1.2,1.6,1.2c1,0,1.6-0.4,1.9-1.2L60.3,4.4c0.3-0.8,0.8-1.5,1.6-1.9c0.8-0.4,1.3-0.8,1.3-1.1V1.3
		c0-0.4-0.4-0.6-1.1-0.6H56.7z"/>
</g>
</svg>
