<svg xmlns="http://www.w3.org/2000/svg" xmlns:xlink="http://www.w3.org/1999/xlink" style="position:absolute; width: 0; height: 0"><symbol viewBox="0 0 16 28" id="facebook"><path d="M14.984.187v4.125h-2.453c-1.922 0-2.281.922-2.281 2.25v2.953h4.578l-.609 4.625H10.25v11.859H5.469V14.14H1.485V9.515h3.984V6.109C5.469 2.156 7.891 0 11.422 0c1.687 0 3.141.125 3.563.187z"/></symbol><symbol viewBox="0 0 100 70.9218" id="icon-arrow-left"><path d="M28.085 21.986l-5.532 5.39-2.837 2.553c3.972-.142 7.801-.142 11.631-.142H100v11.348H31.347c-3.687 0-7.517 0-11.63-.142 1.843 1.702 4.68 4.539 8.51 8.369l21.134 21.56H33.19L0 35.46 33.191 0h16.17z"/></symbol><symbol viewBox="0 0 16 28" id="icon-facebook"><path d="M14.984.187v4.125h-2.453c-1.922 0-2.281.922-2.281 2.25v2.953h4.578l-.609 4.625H10.25v11.859H5.469V14.14H1.485V9.515h3.984V6.109C5.469 2.156 7.891 0 11.422 0c1.687 0 3.141.125 3.563.187z"/></symbol><symbol viewBox="0 0 28 28" id="icon-instagram"><path d="M23.8 1.4H4.2c-1.54 0-2.8 1.26-2.8 2.8v19.6c0 1.541 1.26 2.8 2.8 2.8h19.6c1.54 0 2.8-1.259 2.8-2.8V4.2c0-1.54-1.26-2.8-2.8-2.8zm-9.822 20.332a7.754 7.754 0 0 0 7.753-7.755c0-.473-.06-.93-.144-1.378H23.8v10.102a.967.967 0 0 1-.97.966H5.17a.967.967 0 0 1-.97-.966V12.599h2.169a7.35 7.35 0 0 0-.146 1.378 7.756 7.756 0 0 0 7.755 7.755zm-4.846-7.754a4.847 4.847 0 1 1 9.694.004 4.847 4.847 0 0 1-9.694-.004zM22.83 8.4h-2.261a.971.971 0 0 1-.969-.969V5.167c0-.535.434-.967.967-.967h2.261c.538 0 .972.433.972.967v2.262c0 .533-.434.97-.97.97z"/></symbol><symbol viewBox="0 0 24 28" id="icon-linkedin"><path d="M5.453 9.766V25.25H.297V9.766h5.156zm.328-4.782c.016 1.484-1.109 2.672-2.906 2.672h-.031C1.11 7.656 0 6.468 0 4.984c0-1.516 1.156-2.672 2.906-2.672 1.766 0 2.859 1.156 2.875 2.672zM24 16.375v8.875h-5.141v-8.281c0-2.078-.75-3.5-2.609-3.5-1.422 0-2.266.953-2.641 1.875-.125.344-.172.797-.172 1.266v8.641H8.296c.063-14.031 0-15.484 0-15.484h5.141v2.25h-.031c.672-1.062 1.891-2.609 4.672-2.609 3.391 0 5.922 2.219 5.922 6.969z"/></symbol><symbol viewBox="0 0 25 26" id="icon-magnify"><path d="M24.468 22.775l-6.104-6.185a10.363 10.363 0 0 0 2.089-6.25C20.453 4.64 15.866 0 10.227 0 4.588 0 0 4.64 0 10.341c0 5.703 4.588 10.342 10.227 10.342 1.921 0 3.765-.533 5.382-1.547l6.234 6.307c.356.358.819.557 1.31.557.512 0 1.001-.216 1.314-.56.707-.72.714-1.909.001-2.665zm-14.241-5.86c-3.584 0-6.5-2.949-6.5-6.574 0-3.623 2.916-6.572 6.5-6.572 3.585 0 6.503 2.949 6.503 6.572-.001 3.625-2.918 6.574-6.503 6.574z"/></symbol><symbol viewBox="0 0 36 28" id="icon-mail"><path d="M35.045.934A3.116 3.116 0 0 0 32.785 0H3.215A2.884 2.884 0 0 0 .833 1.033 3.981 3.981 0 0 0 0 3.62a4.616 4.616 0 0 0 1.105 2.715 9.928 9.928 0 0 0 2.35 2.298q.682.477 4.12 2.833 3.434 2.356 5.262 3.628l.853.607c.436.311.798.565 1.086.757s.634.408 1.044.645a6.076 6.076 0 0 0 1.154.538 3.22 3.22 0 0 0 1.005.18h.04a3.197 3.197 0 0 0 1.004-.18 6.096 6.096 0 0 0 1.157-.538c.407-.237.756-.454 1.044-.645s.649-.446 1.084-.757.721-.512.855-.607l9.402-6.461a9.58 9.58 0 0 0 2.452-2.448 5.22 5.22 0 0 0 .983-3 3.032 3.032 0 0 0-.955-2.25M33.99 10.76q-6.588 4.415-10.004 6.86-1.145.837-1.86 1.303a11.533 11.533 0 0 1-1.898.956 5.82 5.82 0 0 1-2.21.486h-.04a5.838 5.838 0 0 1-2.21-.486 11.586 11.586 0 0 1-1.897-.955q-.716-.468-1.859-1.304-2.711-1.969-9.986-6.86A10.472 10.472 0 0 1 0 9.029v15.79a3.047 3.047 0 0 0 .943 2.247A3.113 3.113 0 0 0 3.215 28h29.57a3.112 3.112 0 0 0 2.271-.934A3.046 3.046 0 0 0 36 24.819V9.03a11.009 11.009 0 0 1-2.009 1.73"/></symbol><symbol viewBox="0 0 26 28" id="icon-twitter"><path d="M25.312 6.375a10.85 10.85 0 0 1-2.531 2.609c.016.219.016.438.016.656 0 6.672-5.078 14.359-14.359 14.359-2.859 0-5.516-.828-7.75-2.266.406.047.797.063 1.219.063 2.359 0 4.531-.797 6.266-2.156a5.056 5.056 0 0 1-4.719-3.5c.313.047.625.078.953.078.453 0 .906-.063 1.328-.172a5.048 5.048 0 0 1-4.047-4.953v-.063a5.093 5.093 0 0 0 2.281.641 5.044 5.044 0 0 1-2.25-4.203c0-.938.25-1.797.688-2.547a14.344 14.344 0 0 0 10.406 5.281 5.708 5.708 0 0 1-.125-1.156 5.045 5.045 0 0 1 5.047-5.047 5.03 5.03 0 0 1 3.687 1.594 9.943 9.943 0 0 0 3.203-1.219 5.032 5.032 0 0 1-2.219 2.781c1.016-.109 2-.391 2.906-.781z"/></symbol><symbol viewBox="0 0 28 28" id="instagram"><path d="M23.8 1.4H4.2c-1.54 0-2.8 1.26-2.8 2.8v19.6c0 1.541 1.26 2.8 2.8 2.8h19.6c1.54 0 2.8-1.259 2.8-2.8V4.2c0-1.54-1.26-2.8-2.8-2.8zm-9.822 20.332a7.754 7.754 0 0 0 7.753-7.755c0-.473-.06-.93-.144-1.378H23.8v10.102a.967.967 0 0 1-.97.966H5.17a.967.967 0 0 1-.97-.966V12.599h2.169a7.35 7.35 0 0 0-.146 1.378 7.756 7.756 0 0 0 7.755 7.755zm-4.846-7.754a4.847 4.847 0 1 1 9.694.004 4.847 4.847 0 0 1-9.694-.004zM22.83 8.4h-2.261a.971.971 0 0 1-.969-.969V5.167c0-.535.434-.967.967-.967h2.261c.538 0 .972.433.972.967v2.262c0 .533-.434.97-.97.97z"/></symbol><symbol viewBox="0 0 24 28" id="linkedin"><path d="M5.453 9.766V25.25H.297V9.766h5.156zm.328-4.782c.016 1.484-1.109 2.672-2.906 2.672h-.031C1.11 7.656 0 6.468 0 4.984c0-1.516 1.156-2.672 2.906-2.672 1.766 0 2.859 1.156 2.875 2.672zM24 16.375v8.875h-5.141v-8.281c0-2.078-.75-3.5-2.609-3.5-1.422 0-2.266.953-2.641 1.875-.125.344-.172.797-.172 1.266v8.641H8.296c.063-14.031 0-15.484 0-15.484h5.141v2.25h-.031c.672-1.062 1.891-2.609 4.672-2.609 3.391 0 5.922 2.219 5.922 6.969z"/></symbol><symbol viewBox="0 0 25 26" id="magnify"><path d="M24.468 22.775l-6.104-6.185a10.363 10.363 0 0 0 2.089-6.25C20.453 4.64 15.866 0 10.227 0 4.588 0 0 4.64 0 10.341c0 5.703 4.588 10.342 10.227 10.342 1.921 0 3.765-.533 5.382-1.547l6.234 6.307c.356.358.819.557 1.31.557.512 0 1.001-.216 1.314-.56.707-.72.714-1.909.001-2.665zm-14.241-5.86c-3.584 0-6.5-2.949-6.5-6.574 0-3.623 2.916-6.572 6.5-6.572 3.585 0 6.503 2.949 6.503 6.572-.001 3.625-2.918 6.574-6.503 6.574z"/></symbol><symbol viewBox="0 0 36 28" id="mail"><path d="M35.045.934A3.116 3.116 0 0 0 32.785 0H3.215A2.884 2.884 0 0 0 .833 1.033 3.981 3.981 0 0 0 0 3.62a4.616 4.616 0 0 0 1.105 2.715 9.928 9.928 0 0 0 2.35 2.298q.682.477 4.12 2.833 3.434 2.356 5.262 3.628l.853.607c.436.311.798.565 1.086.757s.634.408 1.044.645a6.076 6.076 0 0 0 1.154.538 3.22 3.22 0 0 0 1.005.18h.04a3.197 3.197 0 0 0 1.004-.18 6.096 6.096 0 0 0 1.157-.538c.407-.237.756-.454 1.044-.645s.649-.446 1.084-.757.721-.512.855-.607l9.402-6.461a9.58 9.58 0 0 0 2.452-2.448 5.22 5.22 0 0 0 .983-3 3.032 3.032 0 0 0-.955-2.25M33.99 10.76q-6.588 4.415-10.004 6.86-1.145.837-1.86 1.303a11.533 11.533 0 0 1-1.898.956 5.82 5.82 0 0 1-2.21.486h-.04a5.838 5.838 0 0 1-2.21-.486 11.586 11.586 0 0 1-1.897-.955q-.716-.468-1.859-1.304-2.711-1.969-9.986-6.86A10.472 10.472 0 0 1 0 9.029v15.79a3.047 3.047 0 0 0 .943 2.247A3.113 3.113 0 0 0 3.215 28h29.57a3.112 3.112 0 0 0 2.271-.934A3.046 3.046 0 0 0 36 24.819V9.03a11.009 11.009 0 0 1-2.009 1.73"/></symbol><symbol viewBox="0 0 26 28" id="twitter"><path d="M25.312 6.375a10.85 10.85 0 0 1-2.531 2.609c.016.219.016.438.016.656 0 6.672-5.078 14.359-14.359 14.359-2.859 0-5.516-.828-7.75-2.266.406.047.797.063 1.219.063 2.359 0 4.531-.797 6.266-2.156a5.056 5.056 0 0 1-4.719-3.5c.313.047.625.078.953.078.453 0 .906-.063 1.328-.172a5.048 5.048 0 0 1-4.047-4.953v-.063a5.093 5.093 0 0 0 2.281.641 5.044 5.044 0 0 1-2.25-4.203c0-.938.25-1.797.688-2.547a14.344 14.344 0 0 0 10.406 5.281 5.708 5.708 0 0 1-.125-1.156 5.045 5.045 0 0 1 5.047-5.047 5.03 5.03 0 0 1 3.687 1.594 9.943 9.943 0 0 0 3.203-1.219 5.032 5.032 0 0 1-2.219 2.781c1.016-.109 2-.391 2.906-.781z"/></symbol></svg>